<svg xmlns="http://www.w3.org/2000/svg" aria-hidden="true"><symbol viewBox="0 0 24 24" id="ctx-back-to-top"><path d="M11.605 5.992s.064 6.188.037 7.097a3.278 3.278 0 00.92 2.378l3.558 3.68a1.999 1.999 0 002.826.048l.001-.002c3.97-3.833 4.08-10.17.246-14.14-3.833-3.97-10.17-4.08-14.14-.246-3.97 3.833-4.08 10.17-.246 14.14a9.998 9.998 0 009.207 2.848"></path><path d="M9 8.5L11.5 6 14 8.5"></path></symbol><symbol viewBox="0 0 24 24" id="ctx-clear-search"><circle cx="11" cy="11" r="8"></circle><path d="M16.7 16.7L21 21M8 8l6 6M14 8l-6 6"></path></symbol><symbol viewBox="0 0 24 24" id="ctx-code-file"><path d="M14.25 2h-9C4.016 2 3 2.903 3 4v16c0 1.097 1.016 2 2.25 2h13.5c1.234 0 2.25-.903 2.25-2V8l-6.75-6z"></path><path d="M9.8 12L7 15l2.8 3M14.2 12l2.8 3-2.8 3"></path></symbol><symbol viewBox="0 0 24 24" id="ctx-edit-file"><path d="M15.861 4.939L13 2H5c-1.097 0-2 .902-2 2v16c0 1.097.903 2 2 2h12c1.098 0 2-.903 2-2V8"></path><path d="M17.409 3.495c.395-.395.93-.617 1.487-.617 1.154 0 2.104.95 2.104 2.104 0 .557-.222 1.092-.617 1.487l-9.418 9.418L7 16.878l.991-3.965 9.418-9.418z"></path></symbol><symbol viewBox="0 0 24 24" id="ctx-github"><path d="M9.25 19.556c-5 1.5-5-2.5-7-3m14 6v-3.87a3.373 3.373 0 00-.94-2.61c3.14-.35 6.44-1.54 6.44-7a5.444 5.444 0 00-1.5-3.75 5.072 5.072 0 00-.09-3.77c-.513-1.198-1.18-.35-3.91 1.48a13.384 13.384 0 00-7 0c-2.73-1.83-3.91-1.48-3.91-1.48a5.072 5.072 0 00-.09 3.77 5.443 5.443 0 00-1.5 3.78c0 5.42 3.3 6.61 6.44 7a3.373 3.373 0 00-.94 2.58v3.87"></path></symbol><symbol viewBox="0 0 24 24" id="ctx-gitlab"><path d="M22.629 14.381l-10.65 7.74-10.65-7.74a.845.845 0 01-.3-.94l1.22-3.78 2.44-7.51a.433.433 0 01.69-.16.418.418 0 01.11.18l2.44 7.49h8.1l2.44-7.51a.433.433 0 01.69-.16.418.418 0 01.11.18l2.44 7.51 1.27 3.76a.844.844 0 01-.35.94z"></path></symbol><symbol viewBox="0 0 24 24" id="ctx-guide-book"><path d="M2 3h6c2.194 0 4 1.806 4 4v14c0-1.646-1.354-3-3-3H2V3zm20 0h-6c-2.194 0-4 1.806-4 4v14c0-1.646 1.354-3 3-3h7V3zM7 14v-4m0-3h.01"></path></symbol><symbol viewBox="0 0 24 24" id="ctx-linkedin"><path d="M16 8.5c3.292 0 6 2.708 6 6v7h-4v-7c0-1.097-.903-2-2-2s-2 .903-2 2v7h-4v-7c0-3.292 2.708-6 6-6zm-10 1H2v12h4v-12zm-2-7c1.097 0 2 .903 2 2.001 0 1.097-.903 2-2 2h-.001c-1.097 0-2-.903-2-2A2.01 2.01 0 014 2.5s0 0 0 0z"></path></symbol><symbol viewBox="0 0 24 24" id="ctx-moon"><path d="M3 12.811C3.427 17.426 7.345 21 11.981 21 16.928 21 21 16.928 21 11.981 21 7.345 17.426 3.427 12.811 3a7.024 7.024 0 011.374 4.17c0 3.848-3.167 7.015-7.015 7.015A7.024 7.024 0 013 12.811z"></path></symbol><symbol viewBox="0 0 24 24" id="ctx-note"><path d="M14 22H6c-1.097 0-2-.903-2-2V4c0-1.097.903-2 2-2h12c1.097 0 2 .903 2 2v12l-6 6z"></path><path d="M14 22v-6h6M8 15h2m-2-4h8M8 7h4m3 0h1"></path></symbol><symbol viewBox="0 0 24 24" id="ctx-popular"><path d="M3.163 20.841l9.899-4.243-5.656-5.657-4.243 9.9zM6.698 10.234l7.072 7.071M17.302 19.423l.007.007M4.574 6.695l.007.007M20.13 10.938l.007.007M13.059 3.867l.007.007M14.584 13.926c1.676-.175 2.93-.38 3.739-.064 1.234.483 1.497 1.529 1.409 3.008M10.009 9.351c.175-1.676.38-2.93.064-3.739-.483-1.234-1.529-1.497-3.008-1.409M13.766 10.23l2.121-.707V6.695h2.829V3.867l2.121-.708"></path></symbol><symbol viewBox="0 0 24 24" id="ctx-privacy"><path d="M22 10a2 2 0 00-2-2H4a2 2 0 00-2 2v10a2 2 0 002 2h16a2 2 0 002-2V10zM6.444 7.556C6.444 4.508 8.952 2 12 2s5.556 2.508 5.556 5.556"></path><path d="M11.984 15.944l.032 2.963-.032-2.963z"></path><circle cx="12" cy="13.722" r="2.222"></circle></symbol><symbol viewBox="0 0 24 24" id="ctx-recent"><circle cx="12" cy="12" r="10"></circle><path d="M16.5 13.85l1.875-1.875L16.5 10.1"></path><path d="M12 16v-3c0-.823.177-1 1-1h5"></path></symbol><symbol viewBox="0 0 24 24" id="ctx-rss"><path d="M4 11c4.937 0 9 4.063 9 9M4 4c8.777 0 16 7.223 16 16"></path><circle cx="5" cy="19" r="1"></circle></symbol><symbol viewBox="0 0 24 24" id="ctx-search"><circle cx="11" cy="11" r="8"></circle><path d="M16.7 16.7L21 21"></path></symbol><symbol viewBox="0 0 24 24" id="ctx-sitemap"><circle cx="11.5" cy="4" r="2"></circle><circle cx="17" cy="19.7" r="2"></circle><circle cx="19" cy="12.5" r="2"></circle><circle cx="5" cy="14.5" r="2"></circle><path d="M12 8.8l5 3M7 13.8l4-2M12 17l3 2M11.5 6v16"></path></symbol><symbol viewBox="0 0 24 24" id="ctx-software-license"><path d="M14.25 2h-9C4.016 2 3 2.903 3 4v16c0 1.097 1.016 2 2.25 2h13.5c1.234 0 2.25-.903 2.25-2V8l-6.75-6z"></path><path d="M9 17l3-4 3 4"></path><circle cx="12" cy="10" r="3"></circle></symbol><symbol viewBox="0 0 24 24" id="ctx-software"><path d="M21 16a2 2 0 00-2-2H5a2 2 0 00-2 2v4a2 2 0 002 2h14a2 2 0 002-2v-4zM7.929 4.443l1.017 1.018-1.017-1.018zM17.7 13.4A7.123 7.123 0 0012 2a7.123 7.123 0 00-5.7 11.4"></path><circle cx="12" cy="9.189" r="1.527"></circle></symbol><symbol viewBox="0 0 24 24" id="ctx-sun"><circle cx="12" cy="12" r="5.5"></circle><path d="M12 2v.909m0 18.182V22M4.927 4.927l.8.8m12.546 12.546l.8.8M2 12h.909m18.182 0H22M4.927 19.073l.8-.8M18.273 5.727l.8-.8"></path></symbol><symbol viewBox="0 0 24 24" id="ctx-table-of-content"><path d="M14.25 2h-9C4.016 2 3 2.903 3 4v16c0 1.097 1.016 2 2.25 2h13.5c1.234 0 2.25-.903 2.25-2V8l-6.75-6zM10 16.5h7M15 12h2M11 7.5h3"></path><circle cx="8.5" cy="16.5" r="1.5"></circle><circle cx="13.206" cy="12" r="1.5"></circle><circle cx="8.5" cy="7.5" r="1.5"></circle></symbol><symbol viewBox="0 0 24 24" id="ctx-twitter"><path d="M23 3a10.921 10.921 0 01-3.14 1.53 4.481 4.481 0 00-3.38-1.54C14.022 2.99 12 5.012 12 7.47v1.06A10.67 10.67 0 013 4C.95 1.081-1 13 8 17a11.639 11.639 0 01-7 2c9 5 20 0 20-11.5a4.532 4.532 0 00-.08-.83A7.712 7.712 0 0023 3z"></path></symbol><symbol viewBox="0 0 24 24" id="ctx-user-feedback"><path d="M10.095 20.986v-1.01c0-1.109-1.095-2.022-2.425-2.022H3.425c-1.33 0-2.425.913-2.425 2.022v1.01M17.5 14.014h-5.356l1.098-2.019A5.502 5.502 0 0112 8.514c0-3.018 2.483-5.5 5.5-5.5s5.5 2.482 5.5 5.5c0 3.017-2.483 5.5-5.5 5.5z"></path><circle cx="5.547" cy="12.085" r="2.599"></circle>&gt;</symbol></svg>