<svg viewBox="0 0 24 24" xmlns="http://www.w3.org/2000/svg" stroke-linecap="round" stroke-linejoin="round" stroke-width="2" stroke="currentColor" fill="none" class="ctx ctx-github"><path d="M9.25 19.556c-5 1.5-5-2.5-7-3m14 6v-3.87a3.373 3.373 0 00-.94-2.61c3.14-.35 6.44-1.54 6.44-7a5.444 5.444 0 00-1.5-3.75 5.072 5.072 0 00-.09-3.77c-.513-1.198-1.18-.35-3.91 1.48a13.384 13.384 0 00-7 0c-2.73-1.83-3.91-1.48-3.91-1.48a5.072 5.072 0 00-.09 3.77 5.443 5.443 0 00-1.5 3.78c0 5.42 3.3 6.61 6.44 7a3.373 3.373 0 00-.94 2.58v3.87"/></svg>