<svg viewBox="0 0 24 24" xmlns="http://www.w3.org/2000/svg" stroke-linecap="round" stroke-linejoin="round" stroke-width="2" stroke="currentColor" fill="none" class="ctx ctx-popular"><path d="M3.163 20.841l9.899-4.243-5.656-5.657-4.243 9.9zM6.698 10.234l7.072 7.071M17.302 19.423l.007.007M4.574 6.695l.007.007M20.13 10.938l.007.007M13.059 3.867l.007.007M14.584 13.926c1.676-.175 2.93-.38 3.739-.064 1.234.483 1.497 1.529 1.409 3.008M10.009 9.351c.175-1.676.38-2.93.064-3.739-.483-1.234-1.529-1.497-3.008-1.409M13.766 10.23l2.121-.707V6.695h2.829V3.867l2.121-.708"/></svg>