<svg viewBox="0 0 24 24" xmlns="http://www.w3.org/2000/svg" stroke-linecap="round" stroke-linejoin="round" stroke-width="2" stroke="currentColor" fill="none"><path d="M3.432 21.422l7.222-3.078a1.36 1.36 0 00.427-.303c.394-.406.496-.969.228-1.255l-4.238-4.369c-.276-.276-.823-.171-1.216.234a1.456 1.456 0 00-.295.442l-2.984 7.446c-.125.316-.094.62.08.8.175.18.47.211.776.083z"/><path d="M12.444 17.984L5.936 11.22l6.508 6.764zM4.31 7.538l-.007-.006M16.07 19.665l-.006-.006m-3.26-16.837l-.007-.007m7.194 7.419l-.006-.007m-5.25 4.124s1.608-.596 2.601-.592c1.556.007 2.6 2.348 2.01 2.539-.825.268-.47-2.566-2.836-2.344-.483.046-1.775.397-1.775.397zm-5.227-5.39s.578-1.658.574-2.682c-.006-1.605-2.277-2.68-2.463-2.073-.259.851 2.489.485 2.273 2.924-.044.499-.384 1.831-.384 1.831zm2.277 2.386c.545.039 1.278.102 1.69-.315.447-.453.129-2.413.787-3.067.657-.654 2.428-.073 3.158-.858.661-.713-.304-3.044.403-3.786.708-.741 2.292-.73 3.677-.821"/></svg>