<svg viewBox="0 0 24 24" xmlns="http://www.w3.org/2000/svg" stroke-linecap="round" stroke-linejoin="round" stroke-width="2" stroke="currentColor" fill="none"><path d="M3.432,21.422L10.654,18.344C10.807,18.277 10.955,18.172 11.081,18.041C11.475,17.635 11.577,17.072 11.309,16.786L7.071,12.417C6.795,12.141 6.248,12.246 5.855,12.651C5.731,12.778 5.631,12.928 5.56,13.093L2.576,20.539C2.451,20.855 2.482,21.159 2.656,21.339C2.831,21.519 3.126,21.55 3.432,21.422Z"/><path d="M12.444,17.984L5.936,11.22L12.444,17.984Z"/><path d="M4.31,7.538L4.303,7.532M16.07,19.665L16.064,19.659M12.804,2.822L12.797,2.815M19.991,10.234L19.985,10.227M14.735,14.351C14.735,14.351 16.343,13.755 17.336,13.759C18.892,13.766 19.936,16.107 19.346,16.298C18.521,16.566 18.876,13.732 16.51,13.954C16.027,14 14.735,14.351 14.735,14.351ZM9.508,8.961C9.508,8.961 10.086,7.303 10.082,6.279C10.076,4.674 7.805,3.599 7.619,4.206C7.36,5.057 10.108,4.691 9.892,7.13C9.848,7.629 9.508,8.961 9.508,8.961ZM11.785,11.347C12.33,11.386 13.063,11.449 13.475,11.032C13.922,10.579 13.604,8.619 14.262,7.965C14.919,7.311 16.69,7.892 17.42,7.107C18.081,6.394 17.116,4.063 17.823,3.321C18.531,2.58 20.115,2.591 21.5,2.5"/></svg>