<svg viewBox="0 0 24 24" xmlns="http://www.w3.org/2000/svg" stroke-linecap="round" stroke-linejoin="round" stroke-width="2" stroke="currentColor" fill="none" class="ctx ctx-popular"><path d="M3.163,20.841L13.062,16.598L7.406,10.941L3.163,20.841Z"/><path d="M6.698,10.234L13.77,17.305"/><path d="M17.302,19.423L17.309,19.43"/><path d="M4.574,6.695L4.581,6.702"/><path d="M20.13,10.938L20.137,10.945"/><path d="M13.059,3.867L13.066,3.874"/><path d="M14.584,13.926C16.26,13.751 17.514,13.546 18.323,13.862C19.557,14.345 19.82,15.391 19.732,16.87"/><path d="M10.009,9.351C10.184,7.675 10.389,6.421 10.073,5.612C9.59,4.378 8.544,4.115 7.065,4.203"/><path d="M13.766,10.23L15.887,9.523L15.887,6.695L18.716,6.695L18.716,3.867L20.837,3.159"/></svg>